<?xml version="1.0" encoding="UTF-8" standalone="no"?>
<!-- Created with Inkscape (http://www.inkscape.org/) -->

<svg
   width="27.337477mm"
   height="8.2734594mm"
   viewBox="0 0 27.337477 8.2734594"
   version="1.1"
   id="svg5"
   xml:space="preserve"
   sodipodi:docname="logo.svg"
   xmlns:inkscape="http://www.inkscape.org/namespaces/inkscape"
   xmlns:sodipodi="http://sodipodi.sourceforge.net/DTD/sodipodi-0.dtd"
   xmlns="http://www.w3.org/2000/svg"
   xmlns:svg="http://www.w3.org/2000/svg"><sodipodi:namedview
     id="namedview7"
     pagecolor="#ffffff"
     bordercolor="#000000"
     borderopacity="0.25"
     inkscape:showpageshadow="2"
     inkscape:pageopacity="0.0"
     inkscape:pagecheckerboard="0"
     inkscape:deskcolor="#d1d1d1"
     inkscape:document-units="mm"
     showgrid="false" /><defs
     id="defs2"><rect
       x="386.30307"
       y="445.01175"
       width="162.74045"
       height="128.45457"
       id="rect353" /></defs><g
     inkscape:label="Layer 1"
     inkscape:groupmode="layer"
     id="layer1"
     transform="translate(-95.764472,-128.14465)"><path
       fill="currentColor"
       d="m 96.11725,131.80603 h 2.116666 c 0.194028,0 0.352778,-0.15875 0.352778,-0.35278 v -2.82222 c 0,-0.19403 -0.15875,-0.35278 -0.352778,-0.35278 H 96.11725 c -0.194028,0 -0.352778,0.15875 -0.352778,0.35278 v 2.82222 c 0,0.19403 0.15875,0.35278 0.352778,0.35278 z m 0,2.82222 h 2.116666 c 0.194028,0 0.352778,-0.15875 0.352778,-0.35278 v -1.41111 c 0,-0.19403 -0.15875,-0.35278 -0.352778,-0.35278 H 96.11725 c -0.194028,0 -0.352778,0.15875 -0.352778,0.35278 v 1.41111 c 0,0.19403 0.15875,0.35278 0.352778,0.35278 z m 3.527773,0 h 2.116667 c 0.19403,0 0.35278,-0.15875 0.35278,-0.35278 v -2.82222 c 0,-0.19403 -0.15875,-0.35278 -0.35278,-0.35278 h -2.116667 c -0.194023,0 -0.352773,0.15875 -0.352773,0.35278 v 2.82222 c 0,0.19403 0.15875,0.35278 0.352773,0.35278 z m -0.352773,-5.99722 v 1.41111 c 0,0.19403 0.15875,0.35278 0.352773,0.35278 h 2.116667 c 0.19403,0 0.35278,-0.15875 0.35278,-0.35278 v -1.41111 c 0,-0.19403 -0.15875,-0.35278 -0.35278,-0.35278 h -2.116667 c -0.194023,0 -0.352773,0.15875 -0.352773,0.35278 z"
       id="path132"
       style="fill:#09090b;fill-opacity:1;stroke-width:0.352778"
       inkscape:export-filename="logo.svg"
       inkscape:export-xdpi="96"
       inkscape:export-ydpi="96" /><text
       xml:space="preserve"
       transform="matrix(0.3843598,0,0,0.3843598,-45.212273,-43.605141)"
       id="text351"
       style="font-style:normal;font-variant:normal;font-weight:bold;font-stretch:normal;font-size:21.3333px;font-family:'Josefin Sans';-inkscape-font-specification:'Josefin Sans Bold';white-space:pre;shape-inside:url(#rect353);fill:#09090b;fill-opacity:1;stroke-width:0"
       inkscape:export-filename="logo.png"
       inkscape:export-xdpi="96"
       inkscape:export-ydpi="96"><tspan
         x="386.30273"
         y="463.67836"
         id="tspan1567">Align</tspan></text></g></svg>
